<?xml version="1.0" encoding="UTF-8" standalone="no"?>
<!DOCTYPE svg PUBLIC "-//W3C//DTD SVG 1.1//EN" "http://www.w3.org/Graphics/SVG/1.1/DTD/svg11.dtd">
<svg width="100%" height="100%" viewBox="0 0 100 100" version="1.1" xmlns="http://www.w3.org/2000/svg" xmlns:xlink="http://www.w3.org/1999/xlink" xml:space="preserve" xmlns:serif="http://www.serif.com/" style="fill-rule:evenodd;clip-rule:evenodd;stroke-linejoin:round;stroke-miterlimit:2;">
    <g transform="matrix(1,0,0,1,-346.684,-113.938)">
        <g id="Event" transform="matrix(1,0,0,1,346.684,113.938)">
            <rect x="0" y="0" width="100" height="100" style="fill:none;"/>
            <g transform="matrix(1.66562,0,0,1.66562,50,61.8717)">
                <g transform="matrix(1,0,0,1,-32,-40)">
                    <path d="M30.556,44.556C30.044,44.556 29.532,44.361 29.142,43.97L23.031,37.859C22.25,37.078 22.25,35.812 23.031,35.031C23.811,34.25 25.079,34.25 25.859,35.031L30.556,39.728L40.142,30.142C40.923,29.361 42.189,29.361 42.97,30.142C43.751,30.923 43.751,32.189 42.97,32.97L31.97,43.97C31.58,44.361 31.068,44.556 30.556,44.556Z" style="fill-rule:nonzero;" fill="currentColor"/>
                    <path d="M51.446,11.789C50.777,11.469 50,11.949 50,12.69L50,15.857C50,16.833 49.365,17.752 48.41,17.956C47.886,18.068 47.403,17.956 47,17.722C47.595,17.376 48,16.738 48,15.999L48,10.106C48,9.11 47.319,8.186 46.336,8.026C45.083,7.822 44,8.784 44,9.999L44,10.999L23,10.999C22.448,10.999 22,11.447 22,11.999L22,15.856C22,16.832 21.365,17.751 20.41,17.955C19.886,18.067 19.403,17.955 19,17.721C19.595,17.375 20,16.737 20,15.998L20,10.105C20,9.109 19.319,8.185 18.336,8.025C17.083,7.821 16,8.783 16,9.998L16,10.998C11.582,10.998 8,14.58 8,18.998L8,47.998C8,52.416 11.582,55.998 16,55.998L48,55.998C52.418,55.998 56,52.416 56,47.998L56,19C56,15.817 54.138,13.075 51.446,11.789ZM52,48C52,50.209 50.209,52 48,52L16,52C13.791,52 12,50.209 12,48L12,24.4L52,24.4L52,48Z" style="fill-rule:nonzero;" fill="currentColor"/>
                </g>
            </g>
        </g>
    </g>
</svg>
