<?xml version="1.0" encoding="UTF-8" standalone="no"?>
<!DOCTYPE svg PUBLIC "-//W3C//DTD SVG 1.1//EN" "http://www.w3.org/Graphics/SVG/1.1/DTD/svg11.dtd">
<svg width="100%" height="100%" viewBox="0 0 100 100" version="1.1" xmlns="http://www.w3.org/2000/svg" xmlns:xlink="http://www.w3.org/1999/xlink" xml:space="preserve" xmlns:serif="http://www.serif.com/" style="fill-rule:evenodd;clip-rule:evenodd;stroke-linejoin:round;stroke-miterlimit:2;">
    <g transform="matrix(1,0,0,1,0,-113.938)">
        <g id="Givers" transform="matrix(1,0,0,1,0,113.938)">
            <rect x="0" y="0" width="100" height="100" style="fill:none;"/>
            <g transform="matrix(1.4848,0,0,1.4848,50,57.5517)">
                <g transform="matrix(1,0,0,1,-55,-67.5)">
                    <g transform="matrix(1,0,0,1,5,10)">
                        <path d="M68.125,43.43C67.668,43.434 67.211,43.457 66.754,43.5L68.059,46.731L68.125,46.731C72.965,46.723 77.129,50.153 78.051,54.903C78.973,59.653 76.395,64.387 71.902,66.192C67.414,67.993 62.274,66.356 59.656,62.286C57.039,58.215 57.676,52.86 61.18,49.52L59.875,46.289C54.742,50.324 53.277,57.477 56.406,63.203C59.535,68.929 66.344,71.562 72.511,69.426C78.679,67.289 82.398,61.008 81.312,54.574C80.226,48.136 74.652,43.426 68.124,43.429L68.125,43.43Z" style="fill-rule:nonzero;stroke:currentColor;stroke-width:1.5px;"/>
                    </g>
                    <g transform="matrix(1,0,0,1,5,10)">
                        <path d="M41.523,60.52L41.23,60.52C39.855,63.985 36.675,66.407 32.968,66.813C29.261,67.219 25.632,65.547 23.539,62.461C21.445,59.376 21.226,55.383 22.972,52.09C24.718,48.794 28.14,46.731 31.871,46.731C32.085,46.731 32.3,46.739 32.511,46.751L34,43.598L34,43.602C28.968,42.79 23.91,44.907 20.961,49.063C18.011,53.219 17.679,58.692 20.105,63.172C22.531,67.656 27.296,70.371 32.39,70.172C37.48,69.973 42.019,66.899 44.089,62.238C43.093,61.914 42.206,61.317 41.523,60.52L41.523,60.52Z" style="fill-rule:nonzero;stroke:currentColor;stroke-width:1.5px;"/>
                    </g>
                    <g transform="matrix(1,0,0,1,5,10)">
                        <path d="M60.297,41.289L65.492,54.141C64.219,55.399 64.012,57.375 64.992,58.868C65.973,60.36 67.871,60.954 69.528,60.286C71.184,59.618 72.137,57.872 71.809,56.118C71.477,54.36 69.953,53.082 68.168,53.063L60.109,33.122L61.027,33.122C61.465,33.122 61.883,32.946 62.195,32.638C62.504,32.329 62.68,31.907 62.68,31.47C62.68,31.032 62.504,30.61 62.195,30.302C61.883,29.993 61.465,29.817 61.027,29.821L55.078,29.821C54.168,29.821 53.43,30.559 53.43,31.469C53.43,32.38 54.168,33.118 55.078,33.122L56.996,33.122L58.652,37.219L40.906,37.219L39.778,33.809L43.063,33.809C43.973,33.805 44.711,33.067 44.711,32.157C44.711,31.247 43.973,30.509 43.063,30.509L35.367,30.509C34.93,30.505 34.512,30.68 34.199,30.989C33.891,31.298 33.715,31.719 33.715,32.157C33.715,32.595 33.891,33.016 34.199,33.325C34.512,33.634 34.93,33.809 35.367,33.809L36.735,33.809L38.547,39.282L32.039,53.067C31.985,53.063 31.93,53.059 31.871,53.059C30.86,53.059 29.891,53.469 29.184,54.196C28.481,54.923 28.098,55.903 28.125,56.915C28.211,58.973 29.922,60.591 31.981,60.551C33.453,60.509 34.762,59.61 35.332,58.251L42.739,58.251C43.121,59.091 43.828,59.743 44.699,60.059C45.567,60.372 46.528,60.325 47.36,59.926C48.196,59.532 48.836,58.813 49.137,57.942C49.438,57.067 49.379,56.106 48.969,55.278L60.297,41.289ZM42.738,55.363L35.332,55.363C35.168,54.972 34.937,54.613 34.652,54.301L39.863,43.254L43.515,54.285C43.187,54.589 42.925,54.956 42.738,55.363L42.738,55.363ZM46.722,53.461C46.57,53.422 46.414,53.394 46.258,53.375L41.863,40.105L57.539,40.105L46.722,53.461Z" style="fill-rule:nonzero;stroke:currentColor;stroke-width:1.5px;"/>
                    </g>
                </g>
            </g>
        </g>
    </g>
</svg>
