<?xml version="1.0" encoding="UTF-8" standalone="no"?>
<!DOCTYPE svg PUBLIC "-//W3C//DTD SVG 1.1//EN" "http://www.w3.org/Graphics/SVG/1.1/DTD/svg11.dtd">
<svg width="100%" height="100%" viewBox="0 0 100 100" version="1.1" xmlns="http://www.w3.org/2000/svg" xmlns:xlink="http://www.w3.org/1999/xlink" xml:space="preserve" xmlns:serif="http://www.serif.com/" style="fill-rule:evenodd;clip-rule:evenodd;stroke-linejoin:round;stroke-miterlimit:2;">
    <g transform="matrix(1,0,0,1,-232.346,-113.938)">
        <g id="Groeps" transform="matrix(1,0,0,1,232.346,113.938)">
            <rect x="0" y="0" width="100" height="100" style="fill:none;"/>
            <g transform="matrix(1.13665,0.430253,-0.430253,1.13665,50,56.5309)">
                <g transform="matrix(1,0,0,1,-55,-67.5)">
                    <g transform="matrix(1,0,0,1,5,10)">
                        <path d="M66.844,51.363L58.781,51.363C65.078,47.121 68.321,38.672 66.297,31.312C65.684,29.074 64.61,26.968 63.176,25.144C61.723,23.292 59.797,22.066 58.176,20.398C56.887,19.07 55.778,17.574 54.989,15.894C54.34,14.511 53.875,13.042 53.617,11.535C53.508,10.855 52.91,7.98 53.543,7.499C51.551,9.011 49.324,11.292 48.633,13.773C47.871,16.503 49.156,20.128 50.098,22.66C51.047,25.214 52.527,28.05 51.074,30.761C49.762,33.214 46.43,33.16 44.227,31.824C41.781,30.343 41.012,27.464 41.035,24.773C41.047,23.496 41.223,20.324 42.551,19.55C33.414,24.878 29.719,36.941 35.832,46.034C37.266,48.167 39.164,49.987 41.336,51.354L35.539,51.354C35.355,51.354 35.211,51.503 35.211,51.683L35.211,52.53C35.211,55.987 38.016,58.792 41.473,58.792L43.055,58.792L46.789,88.483C47.078,90.776 49.031,92.495 51.344,92.487C53.652,92.479 55.594,90.756 55.875,88.467L59.516,58.787L60.918,58.787C64.375,58.787 67.18,55.983 67.18,52.526L67.18,51.678C67.172,51.51 67.027,51.362 66.844,51.362L66.844,51.363ZM45.293,51.363C44.383,49.691 44.07,47.683 44.574,45.844C44.824,44.937 45.258,44.086 45.836,43.347C46.422,42.597 47.203,42.101 47.859,41.426C48.383,40.89 48.832,40.281 49.148,39.601C49.41,39.043 49.598,38.445 49.703,37.836C49.75,37.562 49.992,36.398 49.734,36.203C50.539,36.816 51.441,37.738 51.723,38.742C52.031,39.847 51.512,41.316 51.129,42.34C50.746,43.375 50.145,44.523 50.734,45.617C51.266,46.609 52.613,46.586 53.508,46.047C54.496,45.449 54.809,44.281 54.801,43.195C54.797,42.676 54.723,41.394 54.188,41.082C57.742,43.152 59.25,47.738 57.168,51.359L45.293,51.363Z" style="fill-rule:nonzero;fill:currentColor;"/>
                    </g>
                </g>
            </g>
        </g>
    </g>
</svg>
