<?xml version="1.0" encoding="UTF-8" standalone="no"?>
<!DOCTYPE svg PUBLIC "-//W3C//DTD SVG 1.1//EN" "http://www.w3.org/Graphics/SVG/1.1/DTD/svg11.dtd">
<svg width="100%" height="100%" viewBox="0 0 100 100" version="1.1" xmlns="http://www.w3.org/2000/svg" xmlns:xlink="http://www.w3.org/1999/xlink" xml:space="preserve" xmlns:serif="http://www.serif.com/" style="fill-rule:evenodd;clip-rule:evenodd;stroke-linejoin:round;stroke-miterlimit:2;">
    <g transform="matrix(1,0,0,1,-232.346,0)">
        <g id="Jonggivers" transform="matrix(1,0,0,1,232.346,0)">
            <rect x="0" y="0" width="100" height="100" style="fill:none;"/>
            <g transform="matrix(1.2312,0,0,1.2312,50,59.2037)">
                <g transform="matrix(1,0,0,1,-30,-42.5)">
                    <g transform="matrix(1,0,0,1,-540,-176)">
                        <g>
                            <path d="M568,210L568,213C568,214.105 568.895,215 570,215C571.105,215 572,214.105 572,213L572,210L583,210C585.961,210 588.547,208.391 589.93,206L593,206L593,236C593,240.418 589.418,244 585,244L555,244C550.582,244 547,240.418 547,236L547,206L550.07,206C551.453,208.391 554.039,210 557,210L568,210ZM556,220C554.895,220 554,220.895 554,222L554,232C554,235.314 556.686,238 560,238L580,238C583.314,238 586,235.314 586,232L586,222C586,220.895 585.105,220 584,220L556,220ZM572,206L572,203C572,201.895 571.105,201 570,201C568.895,201 568,201.895 568,203L568,206L557,206C554.791,206 553,204.209 553,202L553,188C553,185.791 554.791,184 557,184L560,184L560,182C560,178.686 562.686,176 566,176L574,176C577.314,176 580,178.686 580,182L580,184L583,184C585.209,184 587,185.791 587,188L587,202C587,204.209 585.209,206 583,206L572,206ZM576,184L576,182C576,180.895 575.105,180 574,180L566,180C564.895,180 564,180.895 564,182L564,184L576,184ZM591,187L596,187C598.209,187 600,188.791 600,191L600,198C600,200.209 598.209,202 596,202L591,202L591,187ZM544,187L549,187L549,202L544,202C541.791,202 540,200.209 540,198L540,191C540,188.791 541.791,187 544,187ZM558,224L582,224L582,232C582,233.105 581.105,234 580,234L560,234C558.895,234 558,233.105 558,232L558,224Z" style="fill-rule:nonzero;fill:currentColor;"/>
                        </g>
                    </g>
                </g>
            </g>
        </g>
    </g>
</svg>
