<?xml version="1.0" encoding="UTF-8" standalone="no"?>
<!DOCTYPE svg PUBLIC "-//W3C//DTD SVG 1.1//EN" "http://www.w3.org/Graphics/SVG/1.1/DTD/svg11.dtd">
<svg width="100%" height="100%" viewBox="0 0 100 100" version="1.1" xmlns="http://www.w3.org/2000/svg" xmlns:xlink="http://www.w3.org/1999/xlink" xml:space="preserve" xmlns:serif="http://www.serif.com/" style="fill-rule:evenodd;clip-rule:evenodd;stroke-linejoin:round;stroke-miterlimit:2;">
    <rect id="Kapoenen" x="0" y="0" width="100" height="100" style="fill:none;"/>
    <g id="Kapoenen1" serif:id="Kapoenen">
        <g transform="matrix(0.954545,0,0,0.954545,50,55.4996)">
            <g transform="matrix(1,0,0,1,-55,-67.5)">
                <g transform="matrix(1,0,0,1,5,10)">
                    <path d="M79.688,78.125L79.688,84.375C79.688,86.961 77.586,89.063 75.001,89.063L25.001,89.063C22.415,89.063 20.313,86.961 20.313,84.375L20.313,78.125C20.313,75.539 22.415,73.438 25.001,73.438L75.001,73.438C77.586,73.438 79.688,75.539 79.688,78.125ZM30.391,70.313L34.61,44.234C34.938,42.25 35.407,40.328 36.032,38.484C29.282,35.219 21.376,34.688 14.173,37.188C15.095,38.625 15.626,40.344 15.626,42.188C15.626,44.359 14.891,46.359 13.641,47.953C20.485,53.516 25.032,61.578 26.235,70.312L30.391,70.313ZM6.25,35.938C2.805,35.938 0,38.742 0,42.188C0,45.633 2.805,48.438 6.25,48.438C9.695,48.438 12.5,45.633 12.5,42.188C12.5,38.742 9.695,35.938 6.25,35.938ZM65.109,43.219C65.156,44.281 65.265,45.375 65.453,46.453L69.578,70.312L73.937,70.312C75.328,63.968 79.468,58.578 85.312,55.64C84.703,54.406 84.375,53.031 84.375,51.562C84.375,49.359 85.125,47.343 86.406,45.75C79.765,42.25 72.14,41.468 65.109,43.218L65.109,43.219ZM93.75,45.313C90.305,45.313 87.5,48.117 87.5,51.563C87.5,55.008 90.305,57.813 93.75,57.813C97.195,57.813 100,55.008 100,51.563C100,48.117 97.195,45.313 93.75,45.313ZM66.406,70.313L62.375,46.984C61.094,39.547 62.844,32.046 67.047,26.062C64.5,24.219 62.781,21.328 62.547,18.016C49.906,21 39.875,31.297 37.703,44.75L33.547,70.312L66.406,70.313ZM73.437,25.001C77.746,25.001 81.25,21.497 81.25,17.188C81.25,12.879 77.746,9.376 73.437,9.376C69.129,9.376 65.625,12.879 65.625,17.188C65.625,21.497 69.129,25.001 73.437,25.001Z" style="fill-rule:nonzero;fill:currentColor;"/>
                </g>
            </g>
        </g>
    </g>
</svg>
