<?xml version="1.0" encoding="UTF-8" standalone="no"?>
<!DOCTYPE svg PUBLIC "-//W3C//DTD SVG 1.1//EN" "http://www.w3.org/Graphics/SVG/1.1/DTD/svg11.dtd">
<svg width="100%" height="100%" viewBox="0 0 100 100" version="1.1" xmlns="http://www.w3.org/2000/svg" xmlns:xlink="http://www.w3.org/1999/xlink" xml:space="preserve" xmlns:serif="http://www.serif.com/" style="fill-rule:evenodd;clip-rule:evenodd;stroke-linejoin:round;stroke-miterlimit:2;">
    <g transform="matrix(1,0,0,1,-116.454,0)">
        <g id="Wouters" transform="matrix(1,0,0,1,116.454,0)">
            <rect x="0" y="0" width="100" height="100" style="fill:none;"/>
            <g transform="matrix(-0.652649,-1.03533,-1.03533,0.652649,41.3227,54.5399)">
                <g transform="matrix(1,0,0,1,-55,-67.5)">
                    <g transform="matrix(1,0,0,1,5,10)">
                        <path d="M35.891,22.32L35.891,55.961L54.555,37.297L54.551,37.301C48.809,31.738 42.563,26.723 35.891,22.321L35.891,22.32Z" style="fill-rule:nonzero;fill:currentColor;"/>
                    </g>
                    <g transform="matrix(1,0,0,1,5,10)">
                        <path d="M38.809,58.879L72.454,58.883C68.052,52.211 63.036,45.961 57.47,40.215L38.809,58.879Z" style="fill-rule:nonzero;fill:currentColor;"/>
                    </g>
                    <g transform="matrix(1,0,0,1,5,10)">
                        <path d="M66.824,25.027C67.262,24.59 67.875,24.371 68.488,24.429C69.105,24.492 69.66,24.828 70.004,25.343C70.543,26.187 70.41,27.3 69.687,27.996L60.386,37.3C66.308,43.406 71.628,50.066 76.273,57.191L76.27,20.562C76.27,19.422 75.344,18.5 74.207,18.5L37.582,18.5C44.703,23.144 51.363,28.461 57.469,34.383L66.824,25.027Z" style="fill-rule:nonzero;fill:currentColor;"/>
                    </g>
                    <g transform="matrix(1,0,0,1,5,10)">
                        <path d="M54.398,71.555C50.722,67.879 44.765,67.879 41.089,71.555L36.945,75.7C35.062,77.637 32.038,77.891 29.863,76.289C28.652,75.364 27.902,73.961 27.804,72.442C27.702,70.922 28.261,69.434 29.335,68.356L31.757,65.934L31.757,68.653L31.757,68.649C31.757,69.207 32.093,69.707 32.609,69.922C33.12,70.133 33.714,70.016 34.105,69.621L39.499,64.227C39.894,63.836 40.011,63.242 39.796,62.731C39.585,62.215 39.085,61.879 38.527,61.879L32.894,61.879L32.894,56.242L32.894,56.246C32.894,55.688 32.558,55.188 32.042,54.977C31.53,54.762 30.937,54.879 30.546,55.274L25.152,60.668C24.757,61.059 24.64,61.653 24.851,62.164C25.066,62.68 25.566,63.016 26.124,63.016L28.839,63.016L26.612,65.243C23.034,68.821 22.694,74.653 26.093,78.403C27.823,80.313 30.261,81.434 32.839,81.496C35.413,81.563 37.905,80.567 39.73,78.746L44.003,74.473L44.007,74.473C44.995,73.481 46.343,72.926 47.745,72.926C49.148,72.926 50.491,73.481 51.483,74.473L57.546,80.535L57.542,80.535C58.351,81.34 59.655,81.34 60.46,80.535C61.269,79.731 61.269,78.422 60.46,77.617L54.398,71.555Z" style="fill-rule:nonzero;fill:currentColor;"/>
                    </g>
                </g>
            </g>
        </g>
    </g>
</svg>
